<svg xmlns="http://www.w3.org/2000/svg" viewBox="0 0 512 256" width="512" height="256">
  <defs>
    <linearGradient id="bg" x1="0%" y1="0%" x2="100%" y2="100%">
      <stop offset="0%" style="stop-color:#d92465;stop-opacity:1" />
      <stop offset="100%" style="stop-color:#b01d53;stop-opacity:1" />
    </linearGradient>
  </defs>
  <rect width="512" height="256" rx="32" fill="url(#bg)"/>

  <!-- Motorhome side view -->
  <g transform="translate(105,122)">
    <path d="M-58,-50 L-58,12 L58,12 L58,-18 L20,-18 L20,-50 Z" fill="rgba(255,255,255,0.18)" stroke="#fff" stroke-width="3.5" stroke-linejoin="round"/>
    <path d="M38,-18 L58,-18 L58,0 L32,0 L32,-18 Z" fill="rgba(255,255,255,0.28)" stroke="#fff" stroke-width="2.5" stroke-linejoin="round"/>
    <path d="M20,-50 L58,-50 L58,-18 L20,-18 Z" fill="rgba(255,255,255,0.12)" stroke="#fff" stroke-width="3.5" stroke-linejoin="round"/>
    <rect x="-48" y="-20" width="22" height="16" rx="2" fill="rgba(255,255,255,0.3)" stroke="#fff" stroke-width="2"/>
    <rect x="-20" y="-20" width="22" height="16" rx="2" fill="rgba(255,255,255,0.3)" stroke="#fff" stroke-width="2"/>
    <rect x="24" y="-14" width="14" height="10" rx="2" fill="rgba(255,255,255,0.3)" stroke="#fff" stroke-width="2"/>
    <rect x="6" y="-16" width="10" height="26" rx="1.5" fill="rgba(255,255,255,0.15)" stroke="#fff" stroke-width="2"/>
    <circle cx="14" cy="-2" r="1.5" fill="#fff" stroke="none"/>
    <line x1="-58" y1="2" x2="58" y2="2" stroke="rgba(255,255,255,0.4)" stroke-width="2"/>
    <rect x="56" y="-6" width="4" height="7" rx="1.5" fill="#FFD700" stroke="none"/>
    <rect x="-60" y="-6" width="3" height="7" rx="1" fill="#FF6B6B" stroke="none"/>
    <circle cx="-32" cy="12" r="14" fill="#fff" stroke="none"/>
    <circle cx="-32" cy="12" r="6" fill="url(#bg)" stroke="none"/>
    <circle cx="-32" cy="12" r="2" fill="#fff" stroke="none"/>
    <circle cx="42" cy="12" r="14" fill="#fff" stroke="none"/>
    <circle cx="42" cy="12" r="6" fill="url(#bg)" stroke="none"/>
    <circle cx="42" cy="12" r="2" fill="#fff" stroke="none"/>
    <rect x="-40" y="-55" width="30" height="5" rx="2" fill="rgba(255,255,255,0.2)" stroke="#fff" stroke-width="1.5"/>
  </g>

  <!-- Euro coin badge -->
  <g transform="translate(170,72)">
    <circle cx="0" cy="0" r="18" fill="#fff" stroke="none"/>
    <circle cx="0" cy="0" r="15" fill="#FFD700" stroke="#DAA520" stroke-width="1.5"/>
    <text x="0" y="5" font-family="system-ui, -apple-system, 'Segoe UI', Roboto, sans-serif" font-size="18" font-weight="700" fill="#b01d53" text-anchor="middle">€</text>
  </g>

  <!-- Text -->
  <text x="210" y="125" font-family="system-ui, -apple-system, 'Segoe UI', Roboto, sans-serif" font-size="52" font-weight="700" fill="#fff" letter-spacing="1">Goboony</text>
  <text x="212" y="155" font-family="system-ui, -apple-system, 'Segoe UI', Roboto, sans-serif" font-size="16" font-weight="400" fill="rgba(255,255,255,0.7)">for Home Assistant</text>
</svg>
